<svg viewBox="0 0 264 264" xmlns="http://www.w3.org/2000/svg" role="img" aria-label="WeChat QR placeholder">
<rect width="264" height="264" fill="#F4F7F8"/>
<rect x="16" y="16" width="56" height="56" fill="#06070A"/><rect x="24" y="24" width="40" height="40" fill="#F4F7F8"/><rect x="32" y="32" width="24" height="24" fill="#06070A"/><rect x="192" y="16" width="56" height="56" fill="#06070A"/><rect x="200" y="24" width="40" height="40" fill="#F4F7F8"/><rect x="208" y="32" width="24" height="24" fill="#06070A"/><rect x="16" y="192" width="56" height="56" fill="#06070A"/><rect x="24" y="200" width="40" height="40" fill="#F4F7F8"/><rect x="32" y="208" width="24" height="24" fill="#06070A"/>
<rect x="16" y="88" width="7" height="7" fill="#06070A"/><rect x="16" y="96" width="7" height="7" fill="#06070A"/><rect x="16" y="104" width="7" height="7" fill="#06070A"/><rect x="16" y="136" width="7" height="7" fill="#06070A"/><rect x="16" y="152" width="7" height="7" fill="#06070A"/><rect x="16" y="160" width="7" height="7" fill="#06070A"/><rect x="16" y="176" width="7" height="7" fill="#06070A"/><rect x="24" y="80" width="7" height="7" fill="#06070A"/><rect x="24" y="104" width="7" height="7" fill="#06070A"/><rect x="24" y="128" width="7" height="7" fill="#06070A"/><rect x="24" y="152" width="7" height="7" fill="#06070A"/><rect x="24" y="160" width="7" height="7" fill="#06070A"/><rect x="24" y="176" width="7" height="7" fill="#06070A"/><rect x="32" y="80" width="7" height="7" fill="#06070A"/><rect x="32" y="88" width="7" height="7" fill="#06070A"/><rect x="32" y="144" width="7" height="7" fill="#06070A"/><rect x="40" y="96" width="7" height="7" fill="#06070A"/><rect x="40" y="104" width="7" height="7" fill="#06070A"/><rect x="40" y="112" width="7" height="7" fill="#06070A"/><rect x="40" y="120" width="7" height="7" fill="#06070A"/><rect x="40" y="128" width="7" height="7" fill="#06070A"/><rect x="40" y="136" width="7" height="7" fill="#06070A"/><rect x="40" y="144" width="7" height="7" fill="#06070A"/><rect x="40" y="160" width="7" height="7" fill="#06070A"/><rect x="40" y="168" width="7" height="7" fill="#06070A"/><rect x="40" y="176" width="7" height="7" fill="#06070A"/><rect x="48" y="80" width="7" height="7" fill="#06070A"/><rect x="48" y="112" width="7" height="7" fill="#06070A"/><rect x="48" y="128" width="7" height="7" fill="#06070A"/><rect x="48" y="136" width="7" height="7" fill="#06070A"/><rect x="56" y="88" width="7" height="7" fill="#06070A"/><rect x="56" y="96" width="7" height="7" fill="#06070A"/><rect x="56" y="104" width="7" height="7" fill="#06070A"/><rect x="56" y="112" width="7" height="7" fill="#06070A"/><rect x="56" y="120" width="7" height="7" fill="#06070A"/><rect x="56" y="144" width="7" height="7" fill="#06070A"/><rect x="56" y="160" width="7" height="7" fill="#06070A"/><rect x="64" y="80" width="7" height="7" fill="#06070A"/><rect x="64" y="88" width="7" height="7" fill="#06070A"/><rect x="64" y="104" width="7" height="7" fill="#06070A"/><rect x="64" y="128" width="7" height="7" fill="#06070A"/><rect x="64" y="136" width="7" height="7" fill="#06070A"/><rect x="64" y="160" width="7" height="7" fill="#06070A"/><rect x="64" y="168" width="7" height="7" fill="#06070A"/><rect x="64" y="176" width="7" height="7" fill="#06070A"/><rect x="72" y="104" width="7" height="7" fill="#06070A"/><rect x="72" y="112" width="7" height="7" fill="#06070A"/><rect x="72" y="152" width="7" height="7" fill="#06070A"/><rect x="80" y="16" width="7" height="7" fill="#06070A"/><rect x="80" y="32" width="7" height="7" fill="#06070A"/><rect x="80" y="72" width="7" height="7" fill="#06070A"/><rect x="80" y="88" width="7" height="7" fill="#06070A"/><rect x="80" y="112" width="7" height="7" fill="#06070A"/><rect x="80" y="136" width="7" height="7" fill="#06070A"/><rect x="80" y="176" width="7" height="7" fill="#06070A"/><rect x="80" y="184" width="7" height="7" fill="#06070A"/><rect x="80" y="192" width="7" height="7" fill="#06070A"/><rect x="80" y="224" width="7" height="7" fill="#06070A"/><rect x="80" y="232" width="7" height="7" fill="#06070A"/><rect x="88" y="24" width="7" height="7" fill="#06070A"/><rect x="88" y="40" width="7" height="7" fill="#06070A"/><rect x="88" y="64" width="7" height="7" fill="#06070A"/><rect x="88" y="88" width="7" height="7" fill="#06070A"/><rect x="88" y="112" width="7" height="7" fill="#06070A"/><rect x="88" y="136" width="7" height="7" fill="#06070A"/><rect x="88" y="144" width="7" height="7" fill="#06070A"/><rect x="88" y="184" width="7" height="7" fill="#06070A"/><rect x="88" y="192" width="7" height="7" fill="#06070A"/><rect x="88" y="200" width="7" height="7" fill="#06070A"/><rect x="88" y="216" width="7" height="7" fill="#06070A"/><rect x="88" y="224" width="7" height="7" fill="#06070A"/><rect x="88" y="232" width="7" height="7" fill="#06070A"/><rect x="96" y="16" width="7" height="7" fill="#06070A"/><rect x="96" y="40" width="7" height="7" fill="#06070A"/><rect x="96" y="48" width="7" height="7" fill="#06070A"/><rect x="96" y="64" width="7" height="7" fill="#06070A"/><rect x="96" y="72" width="7" height="7" fill="#06070A"/><rect x="96" y="120" width="7" height="7" fill="#06070A"/><rect x="96" y="128" width="7" height="7" fill="#06070A"/><rect x="96" y="184" width="7" height="7" fill="#06070A"/><rect x="96" y="192" width="7" height="7" fill="#06070A"/><rect x="96" y="200" width="7" height="7" fill="#06070A"/><rect x="96" y="216" width="7" height="7" fill="#06070A"/><rect x="96" y="224" width="7" height="7" fill="#06070A"/><rect x="104" y="16" width="7" height="7" fill="#06070A"/><rect x="104" y="24" width="7" height="7" fill="#06070A"/><rect x="104" y="64" width="7" height="7" fill="#06070A"/><rect x="104" y="168" width="7" height="7" fill="#06070A"/><rect x="104" y="184" width="7" height="7" fill="#06070A"/><rect x="104" y="192" width="7" height="7" fill="#06070A"/><rect x="104" y="200" width="7" height="7" fill="#06070A"/><rect x="104" y="208" width="7" height="7" fill="#06070A"/><rect x="104" y="224" width="7" height="7" fill="#06070A"/><rect x="112" y="56" width="7" height="7" fill="#06070A"/><rect x="112" y="64" width="7" height="7" fill="#06070A"/><rect x="112" y="160" width="7" height="7" fill="#06070A"/><rect x="112" y="192" width="7" height="7" fill="#06070A"/><rect x="112" y="208" width="7" height="7" fill="#06070A"/><rect x="112" y="216" width="7" height="7" fill="#06070A"/><rect x="112" y="240" width="7" height="7" fill="#06070A"/><rect x="120" y="16" width="7" height="7" fill="#06070A"/><rect x="120" y="32" width="7" height="7" fill="#06070A"/><rect x="120" y="56" width="7" height="7" fill="#06070A"/><rect x="120" y="88" width="7" height="7" fill="#06070A"/><rect x="120" y="160" width="7" height="7" fill="#06070A"/><rect x="120" y="168" width="7" height="7" fill="#06070A"/><rect x="120" y="184" width="7" height="7" fill="#06070A"/><rect x="120" y="192" width="7" height="7" fill="#06070A"/><rect x="120" y="208" width="7" height="7" fill="#06070A"/><rect x="120" y="240" width="7" height="7" fill="#06070A"/><rect x="128" y="16" width="7" height="7" fill="#06070A"/><rect x="128" y="24" width="7" height="7" fill="#06070A"/><rect x="128" y="56" width="7" height="7" fill="#06070A"/><rect x="128" y="64" width="7" height="7" fill="#06070A"/><rect x="128" y="168" width="7" height="7" fill="#06070A"/><rect x="128" y="184" width="7" height="7" fill="#06070A"/><rect x="128" y="208" width="7" height="7" fill="#06070A"/><rect x="128" y="216" width="7" height="7" fill="#06070A"/><rect x="128" y="224" width="7" height="7" fill="#06070A"/><rect x="128" y="240" width="7" height="7" fill="#06070A"/><rect x="136" y="32" width="7" height="7" fill="#06070A"/><rect x="136" y="48" width="7" height="7" fill="#06070A"/><rect x="136" y="80" width="7" height="7" fill="#06070A"/><rect x="136" y="96" width="7" height="7" fill="#06070A"/><rect x="136" y="160" width="7" height="7" fill="#06070A"/><rect x="136" y="184" width="7" height="7" fill="#06070A"/><rect x="136" y="216" width="7" height="7" fill="#06070A"/><rect x="136" y="224" width="7" height="7" fill="#06070A"/><rect x="144" y="40" width="7" height="7" fill="#06070A"/><rect x="144" y="48" width="7" height="7" fill="#06070A"/><rect x="144" y="56" width="7" height="7" fill="#06070A"/><rect x="144" y="96" width="7" height="7" fill="#06070A"/><rect x="144" y="160" width="7" height="7" fill="#06070A"/><rect x="144" y="168" width="7" height="7" fill="#06070A"/><rect x="144" y="192" width="7" height="7" fill="#06070A"/><rect x="144" y="208" width="7" height="7" fill="#06070A"/><rect x="152" y="24" width="7" height="7" fill="#06070A"/><rect x="152" y="40" width="7" height="7" fill="#06070A"/><rect x="152" y="80" width="7" height="7" fill="#06070A"/><rect x="152" y="96" width="7" height="7" fill="#06070A"/><rect x="152" y="176" width="7" height="7" fill="#06070A"/><rect x="152" y="200" width="7" height="7" fill="#06070A"/><rect x="152" y="216" width="7" height="7" fill="#06070A"/><rect x="152" y="224" width="7" height="7" fill="#06070A"/><rect x="152" y="232" width="7" height="7" fill="#06070A"/><rect x="152" y="240" width="7" height="7" fill="#06070A"/><rect x="160" y="32" width="7" height="7" fill="#06070A"/><rect x="160" y="48" width="7" height="7" fill="#06070A"/><rect x="160" y="80" width="7" height="7" fill="#06070A"/><rect x="160" y="96" width="7" height="7" fill="#06070A"/><rect x="160" y="112" width="7" height="7" fill="#06070A"/><rect x="160" y="120" width="7" height="7" fill="#06070A"/><rect x="160" y="144" width="7" height="7" fill="#06070A"/><rect x="160" y="168" width="7" height="7" fill="#06070A"/><rect x="160" y="184" width="7" height="7" fill="#06070A"/><rect x="160" y="200" width="7" height="7" fill="#06070A"/><rect x="168" y="16" width="7" height="7" fill="#06070A"/><rect x="168" y="24" width="7" height="7" fill="#06070A"/><rect x="168" y="40" width="7" height="7" fill="#06070A"/><rect x="168" y="48" width="7" height="7" fill="#06070A"/><rect x="168" y="72" width="7" height="7" fill="#06070A"/><rect x="168" y="80" width="7" height="7" fill="#06070A"/><rect x="168" y="88" width="7" height="7" fill="#06070A"/><rect x="168" y="96" width="7" height="7" fill="#06070A"/><rect x="168" y="104" width="7" height="7" fill="#06070A"/><rect x="168" y="112" width="7" height="7" fill="#06070A"/><rect x="168" y="160" width="7" height="7" fill="#06070A"/><rect x="168" y="176" width="7" height="7" fill="#06070A"/><rect x="168" y="184" width="7" height="7" fill="#06070A"/><rect x="168" y="232" width="7" height="7" fill="#06070A"/><rect x="176" y="32" width="7" height="7" fill="#06070A"/><rect x="176" y="40" width="7" height="7" fill="#06070A"/><rect x="176" y="64" width="7" height="7" fill="#06070A"/><rect x="176" y="96" width="7" height="7" fill="#06070A"/><rect x="176" y="104" width="7" height="7" fill="#06070A"/><rect x="176" y="112" width="7" height="7" fill="#06070A"/><rect x="176" y="120" width="7" height="7" fill="#06070A"/><rect x="176" y="144" width="7" height="7" fill="#06070A"/><rect x="176" y="152" width="7" height="7" fill="#06070A"/><rect x="176" y="168" width="7" height="7" fill="#06070A"/><rect x="176" y="192" width="7" height="7" fill="#06070A"/><rect x="176" y="208" width="7" height="7" fill="#06070A"/><rect x="176" y="232" width="7" height="7" fill="#06070A"/><rect x="184" y="80" width="7" height="7" fill="#06070A"/><rect x="184" y="104" width="7" height="7" fill="#06070A"/><rect x="184" y="112" width="7" height="7" fill="#06070A"/><rect x="192" y="80" width="7" height="7" fill="#06070A"/><rect x="192" y="88" width="7" height="7" fill="#06070A"/><rect x="192" y="128" width="7" height="7" fill="#06070A"/><rect x="192" y="136" width="7" height="7" fill="#06070A"/><rect x="192" y="144" width="7" height="7" fill="#06070A"/><rect x="192" y="152" width="7" height="7" fill="#06070A"/><rect x="192" y="160" width="7" height="7" fill="#06070A"/><rect x="192" y="176" width="7" height="7" fill="#06070A"/><rect x="192" y="184" width="7" height="7" fill="#06070A"/><rect x="192" y="208" width="7" height="7" fill="#06070A"/><rect x="192" y="216" width="7" height="7" fill="#06070A"/><rect x="192" y="232" width="7" height="7" fill="#06070A"/><rect x="192" y="240" width="7" height="7" fill="#06070A"/><rect x="200" y="128" width="7" height="7" fill="#06070A"/><rect x="200" y="136" width="7" height="7" fill="#06070A"/><rect x="200" y="144" width="7" height="7" fill="#06070A"/><rect x="200" y="176" width="7" height="7" fill="#06070A"/><rect x="200" y="208" width="7" height="7" fill="#06070A"/><rect x="200" y="216" width="7" height="7" fill="#06070A"/><rect x="200" y="232" width="7" height="7" fill="#06070A"/><rect x="200" y="240" width="7" height="7" fill="#06070A"/><rect x="208" y="88" width="7" height="7" fill="#06070A"/><rect x="208" y="96" width="7" height="7" fill="#06070A"/><rect x="208" y="112" width="7" height="7" fill="#06070A"/><rect x="208" y="128" width="7" height="7" fill="#06070A"/><rect x="208" y="136" width="7" height="7" fill="#06070A"/><rect x="208" y="152" width="7" height="7" fill="#06070A"/><rect x="208" y="168" width="7" height="7" fill="#06070A"/><rect x="208" y="184" width="7" height="7" fill="#06070A"/><rect x="208" y="192" width="7" height="7" fill="#06070A"/><rect x="208" y="200" width="7" height="7" fill="#06070A"/><rect x="208" y="208" width="7" height="7" fill="#06070A"/><rect x="208" y="224" width="7" height="7" fill="#06070A"/><rect x="216" y="80" width="7" height="7" fill="#06070A"/><rect x="216" y="88" width="7" height="7" fill="#06070A"/><rect x="216" y="96" width="7" height="7" fill="#06070A"/><rect x="216" y="120" width="7" height="7" fill="#06070A"/><rect x="216" y="168" width="7" height="7" fill="#06070A"/><rect x="216" y="176" width="7" height="7" fill="#06070A"/><rect x="216" y="184" width="7" height="7" fill="#06070A"/><rect x="216" y="192" width="7" height="7" fill="#06070A"/><rect x="216" y="216" width="7" height="7" fill="#06070A"/><rect x="216" y="240" width="7" height="7" fill="#06070A"/><rect x="224" y="96" width="7" height="7" fill="#06070A"/><rect x="224" y="120" width="7" height="7" fill="#06070A"/><rect x="224" y="128" width="7" height="7" fill="#06070A"/><rect x="224" y="136" width="7" height="7" fill="#06070A"/><rect x="224" y="160" width="7" height="7" fill="#06070A"/><rect x="224" y="176" width="7" height="7" fill="#06070A"/><rect x="224" y="200" width="7" height="7" fill="#06070A"/><rect x="224" y="232" width="7" height="7" fill="#06070A"/><rect x="232" y="88" width="7" height="7" fill="#06070A"/><rect x="232" y="104" width="7" height="7" fill="#06070A"/><rect x="232" y="120" width="7" height="7" fill="#06070A"/><rect x="232" y="144" width="7" height="7" fill="#06070A"/><rect x="232" y="208" width="7" height="7" fill="#06070A"/><rect x="240" y="88" width="7" height="7" fill="#06070A"/><rect x="240" y="112" width="7" height="7" fill="#06070A"/><rect x="240" y="128" width="7" height="7" fill="#06070A"/><rect x="240" y="152" width="7" height="7" fill="#06070A"/><rect x="240" y="160" width="7" height="7" fill="#06070A"/><rect x="240" y="176" width="7" height="7" fill="#06070A"/><rect x="240" y="184" width="7" height="7" fill="#06070A"/><rect x="240" y="200" width="7" height="7" fill="#06070A"/><rect x="240" y="224" width="7" height="7" fill="#06070A"/><rect x="240" y="232" width="7" height="7" fill="#06070A"/>

<rect x="112" y="112" width="40" height="40" fill="#F4F7F8"/>
<rect x="115" y="115" width="34" height="34" rx="4" fill="#3F6BFF"/>

</svg>